<svg xmlns="http://www.w3.org/2000/svg" xmlns:xlink="http://www.w3.org/1999/xlink" width="1000" height="500" version="1.1" viewBox="0 0 1000 500">
    <title>
        Digitale Waardepapieren Scenario Graph
    </title>
    <desc>
        Citizen claims (claim) data to be proofed, municipality attests claim (attest), housing corporation verifies attestation on claim (verify)
    </desc>
    <style>
        .entity-background {
            fill: white;
            stroke: #cc242D;
            stroke-width: 2;
        }
        .document-icon {
            fill: #D92F38;
            stroke: #cc242D;
            stroke-width: 2;
        }
        text {
            font-size: 18pt;
        }
        #attestations text, #claim text {
            fill: white;
        }
        .transaction-line {
            fill: #cc242D;
        }
        #transaction-diamond {
            fill: white;
        }
    </style>
    <g transform="translate(-542 431)">
        <g id="attestations">
            <use xlink:href="#graph-graphic" transform="matrix(0.1 0 0 -0.1 1346 -62)"/>
            <use xlink:href="#attestations-document-fill" transform="translate(1275 -295)"/>
            <use xlink:href="#attestations-document-fill" transform="translate(1258 -276)"/>
            <use xlink:href="#attestations-document-fill" transform="translate(1241 -257)"/>
            <text transform="translate(1298 -210)">Attestations</text>
        </g>

        <g id="claim">
            <use class="transaction-line" transform="matrix(0.966206 0.25777 -0.25777 0.966206 667 -190)" xlink:href="#claims-retreive-line"/>
            <use class="transaction-line" transform="matrix(0.160293 0.987069 -0.987069 0.160293 888 -134)" xlink:href="#claims-register-line"/>
            <use transform="translate(816 -156)" xlink:href="#claims-document-fill"/>
            <text transform="translate(856 -124)">Claim</text>
        </g>
            
        <g id="claim-link">
            <text transform="translate(740 -55)">Claim</text>
            <use transform="matrix(0.944986 -0.327111 0.327111 0.944986 698 -70)" xlink:href="#claim-arrow"/>
        </g>
        <g id="dotted">
            <use transform="matrix(-0.960275 0.279054 -0.279054 -0.960275 1216 -211)" xlink:href="#dotted-arrow"/>
        </g>
        <g id="attest">
            <text transform="translate(892 -219)">Attest</text>
            <use transform="matrix(0.99608 -0.088455 0.088455 0.99608 698 -188)" xlink:href="#attest-arrow"/>
        </g>
        <g id="verify">
            <text transform="translate(1057 -74)">Verify</text>
            <use transform="matrix(0.897533 -0.440948 0.440948 0.897533 938 -43)" xlink:href="#verify-arrow"/>
        </g>

        <g id="register">
            <use class="transaction-line" transform="translate(684 -24)" xlink:href="#register-line"/>
            <text transform="translate(867 38)">Register</text>
            <g id="register-transaction-icon">
                <use transform="translate(882 -43)" xlink:href="#transaction-icon-background"/>
                <use transform="matrix(0.707107 -0.707107 0.707107 0.707107 885.577 -17.0767)" xlink:href="#transaction-diamond"/>
            </g>
        </g>
        <g id="retrieve">
            <use class="transaction-line" transform="matrix(0.356092 -0.934451 0.934451 0.356092 620.855 -95.3779)" xlink:href="#retreive-line"/>
            <text transform="translate(552 -184)">Retreive</text>
            <g>
            <g id="retreive-transaction-icon">
                <use transform="translate(642 -218)" xlink:href="#transaction-icon-background"/>
                <use transform="matrix(0.707107 -0.707107 0.707107 0.707107 645.577 -192.077)" xlink:href="#transaction-diamond"/>
            </g>
        </g>

        <g id="citizen" transform="translate(543 -112)">
            <use xlink:href="#citizen-background-fill"/>
            <text transform="translate(40 164)">Citizen</text>
            <use transform="translate(35 30)" xlink:href="#citizen-icon"/>
        </g>
        <g id="public-administration" transform="translate(639 -430)">
            <use xlink:href="#public-administration-background-fill"/>
            <text transform="translate(148 88)">Public Administration</text>
            <use transform="translate(30 20)" xlink:href="#public-administration-icon"/>
        </g>
        <g id="housing-cooperative" transform="translate(1099 -112)">
            <use xlink:href="#housing-cooperative-background-fill"/>
            <text transform="translate(17 164)">Housing Cooperative</text>
            <use transform="translate(75 30)" xlink:href="#housing-cooperative-icon"/>
        </g>

    </g>
    <defs>
        <path id="claims-retreive-line" 
            d="M 0 -2.22045e-16L 229.715 -2.22045e-16L 229.715 -4L 0 -4L 0 -2.22045e-16Z"/>
        <path id="claims-register-line" 
            d="M 0 0L 118.533 0L 118.533 -4L 0 -4L 0 0Z"/>
        <path id="claims-document-fill" class="document-icon"
            d="M 0 0L 142 0L 142 46.6851C 142 46.6851 106.593 39.2265 71 46.6851C 35.4073 54.1436 0 46.6851 0 46.6851L 0 0Z"/>
        <path id="register-line" 
            d="M 0 0L 481 0L 481 12L 0 12L 0 0Z"/>

        <path id="transaction-icon-background"  class="document-icon"
            d="M 50 25C 50 38.8071 38.8071 50 25 50C 11.1929 50 0 38.8071 0 25C 0 11.1929 11.1929 0 25 0C 38.8071 0 50 11.1929 50 25Z"/>
        <path id="transaction-diamond" 
            d="M 0 0L 0 -5L -5 -5L -5 0L 0 0ZM 30.3449 0L 35.3449 0L 35.3449 -5L 30.3449 -5L 30.3449 0ZM 30.3449 30.3449L 30.3449 35.3449L 35.3449 35.3449L 35.3449 30.3449L 30.3449 30.3449ZM 0 30.3449L -5 30.3449L -5 35.3449L 0 35.3449L 0 30.3449ZM 0 5L 30.3449 5L 30.3449 -5L 0 -5L 0 5ZM 25.3449 0L 25.3449 30.3449L 35.3449 30.3449L 35.3449 0L 25.3449 0ZM 30.3449 25.3449L 0 25.3449L 0 35.3449L 30.3449 35.3449L 30.3449 25.3449ZM 5 30.3449L 5 0L -5 0L -5 30.3449L 5 30.3449Z"/>
        
        <path id="graph-graphic" 
            d="M 1599.31 3675.67C 1580.54 3670.09 1571.4 3658.4 1571.4 3639.61C 1571.4 3624.88 1557.2 3614.21 1424.28 3530.9C 1411.59 3523.28 1355.79 3486.71 1299.98 3450.14C 1138.14 3344.48 1145.75 3348.54 1134.59 3355.15C 1119.88 3364.8 1106.68 3362.26 1089.43 3347.53C 1071.17 3332.29 1100.09 3333.3 816.488 3340.42L 683.058 3343.46L 670.375 3360.23C 660.228 3372.42 653.632 3376.48 640.442 3376.48C 631.31 3376.48 621.163 3372.93 617.612 3368.86C 608.479 3357.69 601.884 3358.7 526.291 3383.59C 488.748 3395.78 446.639 3408.99 432.433 3413.56C 418.735 3417.63 359.884 3436.42 302.048 3455.22C 196.522 3489.25 196.522 3489.25 196.522 3503.98C 196.522 3522.27 180.794 3539.03 163.545 3539.03C 156.442 3539.03 144.773 3533.44 137.671 3525.82C 121.943 3510.58 123.973 3491.28 143.251 3475.53C 154.413 3465.88 155.935 3458.77 165.574 3354.64C 178.258 3220.03 178.258 3219.52 167.604 3215.46C 144.773 3206.82 139.7 3182.44 155.935 3161.61L 166.082 3148.4L 104.694 2964.01C 70.7023 2862.42 40.7694 2776.57 37.7254 2773.52C 35.1887 2769.97 29.1006 2766.92 24.0273 2766.92C 12.8659 2766.92 5.76313 2758.29 1.1971 2740C -1.84692 2728.32 0.182429 2723.74 15.9099 2709.52C 31.6373 2694.79 35.1887 2687.17 43.8134 2647.04C 59.5408 2572.88 79.327 2481.95 87.4444 2449.44C 98.0984 2403.22 115.855 2324.99 120.929 2300.1C 124.987 2280.29 124.48 2277.24 112.811 2268.1C 96.5764 2255.4 96.0691 2232.54 111.289 2218.32C 117.377 2212.73 124.987 2208.16 128.539 2208.16C 136.149 2208.16 138.178 2196.47 151.369 2073.55C 182.316 1779.43 191.448 1677.33 185.868 1675.3C 173.184 1671.24 161.008 1653.96 161.008 1640.25C 161.008 1625.01 174.199 1608.76 186.375 1608.76C 191.448 1608.76 192.463 1598.09 189.419 1556.94C 187.897 1527.99 184.853 1477.19 183.331 1443.67C 181.809 1410.14 177.243 1326.83 173.692 1258.26C 169.633 1189.68 165.067 1102.82 163.038 1065.23C 158.472 969.225 159.486 974.304 141.729 963.637C 133.105 958.049 124.48 947.89 122.451 940.779C 118.392 923.508 132.09 903.189 150.861 899.125C 165.067 896.585 167.096 893.03 193.985 811.755C 209.205 765.53 247.763 650.729 279.218 556.755L 336.547 386.586L 326.4 372.871C 317.268 360.68 316.761 357.124 322.341 342.393C 325.893 333.758 329.444 324.614 329.951 323.09C 330.459 321.567 296.975 268.23 254.866 204.734L 179.272 89.4255L 162.53 92.4733C 148.832 95.0132 143.251 92.9813 133.105 82.822C 116.87 66.567 116.87 52.3439 133.105 36.5969C 148.325 20.85 167.604 20.342 181.809 34.5651C 193.985 46.7563 182.824 46.7563 531.872 35.581L 635.876 32.5332L 644.5 18.3101C 655.154 -0.992625 675.448 -5.56433 692.697 7.13485C 700.307 12.7225 706.903 21.8659 707.917 27.4535C 708.932 35.073 721.616 41.1687 771.335 56.4077C 805.326 66.567 873.309 87.9016 922.014 103.141C 970.718 118.38 1029.06 136.159 1051.38 142.762C 1073.71 149.366 1115.82 162.573 1144.73 171.716C 1186.84 184.923 1199.02 186.955 1206.63 182.384C 1221.34 173.24 1249.25 174.764 1258.38 185.431C 1268.02 196.099 1269.54 222.513 1261.42 230.64C 1255.84 236.228 1265.48 268.738 1312.16 405.889C 1331.94 463.797 1334.99 468.877 1353.25 472.941C 1364.41 474.973 1370.5 480.052 1374.05 490.212C 1378.62 502.911 1383.69 505.451 1433.41 518.658C 1463.34 526.277 1497.84 535.421 1510.52 539.484C 1523.21 543.04 1558.72 552.184 1589.16 560.311L 1644.97 574.534L 1658.67 560.819C 1675.92 543.548 1690.12 543.548 1705.85 559.803C 1720.05 573.518 1721.07 582.154 1712.95 605.52C 1707.37 620.251 1720.05 666.984 1781.95 855.948C 1783.47 859.504 1788.55 863.568 1793.11 865.599C 1810.36 871.695 1820 883.886 1820 899.633C 1820 919.444 1815.43 926.048 1798.69 932.651C 1781.95 938.747 1783.98 930.111 1761.66 1090.63C 1735.27 1278.07 1704.33 1491.92 1695.2 1547.29C 1687.59 1593.01 1687.59 1595.04 1697.22 1601.64C 1712.95 1612.31 1716 1633.65 1704.33 1649.39L 1694.18 1662.6L 1716.5 1797.21C 1743.39 1961.28 1740.86 1951.13 1756.08 1958.24C 1779.41 1968.9 1777.89 2012.59 1754.55 2018.69C 1742.88 2021.73 1739.33 2035.45 1723.1 2135.52L 1711.43 2207.65L 1722.59 2219.84C 1737.3 2235.59 1737.3 2260.48 1722.59 2274.19L 1710.92 2284.86L 1709.4 2546.46C 1707.88 2763.87 1708.89 2807.56 1714.47 2807.56C 1718.53 2807.56 1725.13 2814.16 1730.2 2822.29C 1737.3 2833.97 1737.81 2840.07 1733.25 2851.24C 1727.16 2868.51 1720.05 2873.59 1702.81 2873.59C 1695.7 2873.59 1686.06 2877.66 1682 2882.74C 1677.95 2887.31 1642.94 2941.66 1604.38 3002.62C 1544.52 3097.61 1535.38 3115.39 1540.46 3123.01C 1549.08 3137.74 1547.05 3163.64 1536.4 3175.33C 1527.77 3184.47 1527.27 3189.55 1530.82 3208.85C 1533.35 3221.55 1548.07 3305.87 1563.79 3396.8C 1598.8 3597.45 1600.32 3605.07 1611.99 3605.07C 1642.43 3605.07 1656.64 3652.31 1632.29 3671.61C 1618.08 3682.28 1620.11 3681.77 1599.31 3675.67ZM 1588.15 3611.67C 1589.67 3609.13 1586.12 3584.75 1581.04 3556.81C 1575.97 3528.87 1568.36 3484.17 1563.79 3457.76C 1559.23 3431.34 1546.55 3359.21 1535.89 3298.25C 1524.73 3237.3 1515.6 3185.99 1515.6 3184.98C 1515.6 3184.47 1512.55 3183.45 1508.5 3183.45C 1495.81 3183.45 1479.58 3165.68 1476.03 3148.91C 1472.47 3133.17 1463.85 3127.07 1363.4 3066.62C 1271.06 3011.25 1253.3 3002.62 1246.71 3008.21C 1242.65 3011.76 1234.53 3015.82 1228.95 3016.84C 1220.33 3018.36 1211.2 3041.22 1174.67 3152.47L 1130.53 3286.57L 1140.17 3299.27C 1145.75 3305.87 1150.32 3318.07 1150.32 3325.68C 1150.32 3339.91 1178.22 3359.72 1348.18 3468.42C 1371.51 3483.66 1431.89 3522.78 1482.62 3555.29C 1571.4 3612.69 1583.58 3619.29 1588.15 3611.67ZM 313.209 3443.53C 348.216 3432.36 416.706 3410.01 465.41 3394.26C 514.115 3378.51 565.356 3361.75 578.547 3357.69C 592.245 3353.62 603.913 3347.02 605.435 3341.94C 606.957 3337.37 610.509 3329.24 613.045 3324.67C 621.67 3307.91 625.221 3317.05 515.129 3070.69C 486.211 3006.17 482.66 3001.6 470.484 3001.6C 462.874 3002.11 454.249 3000.59 451.205 2998.55C 445.624 2995.51 391.847 3031.06 268.564 3119.45C 212.249 3159.58 211.235 3160.6 214.279 3176.85C 216.815 3190.06 214.279 3196.15 202.61 3209.87C 190.434 3223.58 187.39 3232.73 184.853 3262.19C 182.824 3282 177.75 3335.34 173.184 3381.56C 168.618 3430.83 167.096 3465.88 170.14 3466.9C 172.677 3467.41 178.765 3471.47 183.838 3475.03C 193.985 3482.14 185.36 3484.68 313.209 3443.53ZM 922.014 3328.22C 970.718 3326.7 1025 3325.68 1042.25 3325.68C 1070.66 3325.68 1074.21 3324.67 1083.85 3310.95L 1094.51 3296.73L 1078.78 3264.22C 1062.04 3229.68 908.316 2950.8 901.213 2941.66C 899.183 2939.12 889.544 2937.6 879.905 2938.61C 863.67 2940.65 861.133 2943.69 806.848 3045.29C 682.043 3277.94 666.316 3309.94 672.404 3323.65L 677.985 3335.84L 755.607 3333.3C 798.223 3331.78 873.309 3329.75 922.014 3328.22ZM 735.314 3160.6C 844.898 2953.34 853.016 2937.09 849.464 2927.44C 845.406 2916.77 833.23 2917.28 749.519 2929.98C 711.976 2935.57 651.603 2944.71 615.075 2949.79C 505.49 2966.55 511.578 2964.52 503.461 2982.3C 495.851 2998.05 496.358 3000.59 511.071 3034.11C 529.842 3075.76 538.974 3096.08 548.614 3118.94C 631.31 3307.91 630.295 3306.38 646.53 3304.35C 658.706 3302.83 668.345 3287.59 735.314 3160.6ZM 1162.49 3151.45C 1202.06 3030.56 1206.63 3014.81 1199.53 3009.22C 1194.96 3005.67 1189.38 2997.54 1186.84 2990.43C 1182.28 2978.24 1172.64 2975.19 1051.89 2945.22C 929.116 2914.74 906.794 2911.69 906.794 2924.39C 906.794 2927.44 947.888 3004.14 998.114 3095.07C 1048.34 3185.99 1089.43 3261.68 1089.43 3263.71C 1089.43 3271.84 1106.18 3290.64 1111.25 3289.11C 1114.8 3288.1 1137.63 3226.12 1162.49 3151.45ZM 241.167 3127.58C 259.939 3113.86 311.687 3076.78 356.333 3044.78C 426.853 2995 437.507 2985.35 439.029 2972.14C 439.536 2964.01 442.58 2952.33 445.624 2946.74C 450.19 2937.6 443.088 2919.31 396.92 2827.37C 366.987 2767.43 339.083 2714.09 335.532 2709.01C 331.473 2703.42 322.341 2698.35 314.731 2697.33C 306.614 2696.31 296.467 2690.73 291.394 2685.14C 281.247 2672.44 280.232 2672.44 183.838 2697.84C 144.773 2708 104.186 2718.66 94.0398 2721.71C 78.8196 2725.78 73.7463 2730.85 64.1069 2750.16L 52.9455 2773.52L 115.348 2960.46C 157.964 3087.45 180.794 3148.4 185.868 3149.42C 203.117 3154.5 208.191 3151.96 241.167 3127.58ZM 1492.77 3117.42C 1494.29 3114.88 1500.89 3112.34 1507.48 3112.34C 1522.7 3112.34 1525.74 3108.27 1584.09 3015.82C 1670.34 2879.18 1673.38 2872.58 1668.81 2850.23C 1664.25 2828.38 1654.1 2821.27 1487.69 2726.28C 1440.51 2699.36 1366.44 2656.18 1323.82 2630.28C 1281.21 2604.88 1243.67 2584.05 1240.11 2584.05C 1237.07 2584.05 1228.95 2588.12 1222.86 2593.2L 1211.7 2601.83L 1220.84 2770.98C 1229.97 2939.63 1229.97 2940.14 1243.16 2953.85C 1250.26 2961.47 1256.86 2973.16 1257.87 2979.76C 1258.89 2989.92 1279.18 3004.14 1368.47 3057.48C 1428.34 3093.04 1480.08 3122.5 1483.64 3122.5C 1486.68 3122.5 1491.25 3120.47 1492.77 3117.42ZM 1202.57 2953.85C 1211.7 2947.25 1219.31 2942.17 1220.33 2941.66C 1220.84 2941.15 1217.79 2884.26 1213.23 2814.67C 1208.66 2745.08 1204.09 2667.87 1202.57 2643.48C 1200.03 2601.83 1199.02 2598.28 1187.86 2593.7C 1180.76 2591.16 1173.15 2583.04 1170.61 2575.93C 1165.54 2562.72 1164.52 2562.21 1131.04 2565.77C 1112.27 2567.29 1066.1 2570.34 1028.55 2572.37L 960.064 2575.42L 939.263 2597.26L 918.97 2618.59L 901.72 2741.52L 884.471 2863.94L 897.661 2875.12C 904.764 2881.21 911.867 2889.85 913.389 2894.42C 915.418 2900.52 942.814 2909.15 1016.89 2926.93C 1072.19 2940.14 1129.01 2953.85 1142.71 2957.41C 1178.73 2967.06 1184.31 2966.55 1202.57 2953.85ZM 658.706 2934.55C 735.314 2923.37 807.355 2912.71 819.024 2910.68C 835.259 2908.64 841.347 2905.09 843.884 2896.96C 845.406 2891.37 853.016 2880.71 861.133 2873.59C 874.324 2861.4 875.846 2855.81 891.066 2746.6C 899.691 2683.61 906.794 2627.23 906.794 2621.13C 906.794 2615.04 902.227 2607.42 896.647 2604.37C 890.559 2601.32 883.963 2593.2 881.427 2587.1C 878.383 2577.96 871.787 2574.4 855.045 2572.37C 842.869 2570.85 793.15 2563.73 744.446 2556.11C 607.972 2535.8 608.479 2535.8 586.157 2555.1C 568.907 2570.34 566.878 2575.42 554.702 2632.31C 531.364 2742.03 490.27 2920.83 487.733 2925.41C 484.182 2930.99 505.49 2954.87 513.607 2954.87C 516.651 2954.87 582.098 2945.73 658.706 2934.55ZM 477.586 2925.91C 481.138 2913.72 497.88 2838.54 513.607 2764.38C 521.217 2730.85 533.394 2672.44 541.511 2634.85L 556.224 2566.27L 545.57 2557.64C 539.989 2552.56 532.886 2548.49 529.335 2548.49C 526.291 2548.49 504.475 2559.67 480.63 2573.89C 456.786 2587.61 418.735 2609.45 395.905 2622.66C 362.421 2641.96 353.796 2649.07 353.796 2658.22C 353.796 2664.82 351.26 2675.49 348.216 2682.09C 343.65 2692.76 347.708 2703.93 379.163 2767.43C 431.926 2873.09 465.41 2934.55 470.484 2934.55C 473.02 2934.55 476.064 2930.49 477.586 2925.91ZM 1675.92 2809.08C 1673.89 2804 1654.1 2775.05 1631.78 2744.06C 1609.46 2713.58 1539.44 2616.05 1476.03 2528.18C 1364.41 2373.25 1360.35 2368.17 1342.6 2366.64C 1324.84 2365.12 1323.32 2366.13 1303.02 2399.66C 1291.86 2418.46 1269.03 2455.03 1252.8 2479.92L 1223.37 2525.64L 1235.55 2549C 1246.2 2569.83 1254.83 2576.43 1322.81 2617.58C 1364.92 2642.47 1402.97 2665.33 1408.04 2667.87C 1429.35 2680.06 1508.5 2725.78 1573.94 2764.38C 1663.74 2817.21 1663.74 2817.21 1672.36 2817.72C 1676.42 2817.72 1677.95 2814.67 1675.92 2809.08ZM 1699.25 2583.04C 1699.76 2462.14 1700.27 2353.94 1700.78 2342.77C 1702.3 2305.18 1697.73 2283.84 1686.06 2278.76C 1679.97 2276.22 1671.35 2271.65 1666.78 2268.1C 1660.19 2263.53 1650.04 2264.03 1618.59 2271.14C 1564.3 2283.84 1393.33 2324.99 1382.68 2328.04C 1378.11 2329.56 1372.53 2337.18 1371.01 2345.31C 1367.96 2358.52 1374.56 2369.69 1426.31 2441.82C 1458.78 2486.52 1511.54 2560.18 1544.52 2605.9C 1576.99 2651.1 1618.59 2709.01 1637.36 2733.9C 1656.13 2759.3 1674.39 2784.7 1678.45 2791.3C 1697.22 2821.27 1698.24 2810.1 1699.25 2583.04ZM 175.721 2689.71C 275.159 2663.8 279.725 2662.28 288.857 2647.04C 293.931 2637.9 302.555 2629.77 307.629 2628.25C 314.224 2626.72 318.283 2619.1 320.819 2603.86C 322.849 2591.67 325.385 2576.94 326.4 2571.35C 335.025 2528.18 348.723 2441.31 348.723 2431.66C 348.723 2425.57 343.142 2415.92 336.547 2410.84C 328.937 2404.74 323.356 2394.58 322.341 2384.42C 320.819 2369.18 315.239 2364.61 240.66 2319.4C 164.56 2273.18 146.295 2266.07 138.178 2279.27C 136.656 2281.81 127.524 2319.4 117.377 2364.1C 107.738 2408.3 90.4884 2484.49 79.327 2533.26C 40.7694 2704.95 42.2914 2694.79 55.4822 2705.96C 62.0775 2711.55 68.1656 2716.12 69.6876 2716.12C 71.2096 2716.12 118.899 2704.44 175.721 2689.71ZM 440.044 2586.08C 511.578 2543.92 531.364 2529.7 533.901 2519.54C 535.423 2512.43 536.438 2506.33 535.423 2505.32C 513.1 2488.55 464.903 2454.52 433.448 2433.19C 396.413 2407.79 392.861 2406.26 384.744 2413.38C 379.67 2417.95 373.075 2421.5 370.031 2421.5C 362.928 2421.5 362.421 2423.03 344.157 2533.26C 330.966 2614.02 329.951 2623.17 337.561 2631.29C 341.62 2635.87 346.186 2639.93 347.201 2639.93C 348.216 2639.93 390.325 2615.55 440.044 2586.08ZM 1084.36 2558.65C 1135.1 2556.11 1168.58 2552.05 1169.59 2548.49C 1173.15 2537.83 1186.84 2528.18 1198.51 2528.18C 1206.63 2528.18 1213.73 2522.59 1221.85 2509.38C 1227.94 2498.71 1251.28 2462.14 1273.09 2427.6L 1312.66 2365.63L 1306.58 2344.29C 1299.47 2321.43 1308.1 2326.01 1097.04 2225.94C 1069.14 2212.73 1022.97 2190.89 994.055 2177.17C 943.829 2153.3 941.8 2152.79 929.624 2160.41C 914.404 2170.06 914.911 2155.84 922.521 2375.79L 928.609 2540.37L 941.8 2554.08C 952.961 2565.77 958.035 2567.29 977.821 2565.77C 990.504 2564.75 1038.19 2561.19 1084.36 2558.65ZM 887.515 2554.08C 891.066 2549 898.676 2543.92 904.257 2542.91C 913.896 2540.88 914.404 2536.81 914.404 2482.46C 914.404 2450.46 912.882 2387.47 910.852 2342.77C 908.823 2298.07 906.794 2242.7 906.794 2219.84C 906.794 2187.84 904.764 2176.66 898.169 2169.55C 888.022 2159.9 900.706 2147.71 787.062 2279.78C 621.163 2472.81 597.825 2500.75 597.318 2505.83C 596.811 2522.08 611.523 2527.67 673.419 2535.8C 708.425 2540.37 745.46 2545.45 755.607 2546.97C 766.261 2548.49 792.135 2552.56 813.951 2556.11C 869.758 2565.26 879.905 2565.26 887.515 2554.08ZM 608.987 2469.25C 620.656 2455.54 639.934 2432.68 652.618 2418.96C 665.808 2404.74 690.668 2375.28 708.932 2353.44C 727.196 2331.59 764.739 2286.89 792.643 2254.38C 872.802 2160.92 876.353 2155.84 872.295 2139.58C 868.743 2126.88 861.133 2123.33 782.496 2096.4C 734.806 2080.15 650.588 2050.69 594.781 2031.38L 492.807 1996.33L 475.557 2005.48C 465.918 2010.56 456.278 2015.64 454.249 2016.15C 450.19 2017.67 446.639 2033.42 402.501 2238.63C 380.178 2339.72 379.163 2348.86 386.266 2363.09C 390.325 2371.21 394.891 2381.88 396.413 2386.96C 397.427 2391.53 422.287 2411.85 451.205 2432.68C 542.018 2497.19 539.482 2495.67 564.848 2494.65C 586.664 2493.63 590.215 2491.6 608.987 2469.25ZM 341.113 2355.47C 342.635 2352.93 349.23 2350.39 355.826 2350.39C 366.48 2350.39 368.509 2345.82 381.192 2285.88C 395.905 2215.78 414.169 2131.45 430.404 2058.81C 436.492 2029.86 438.522 2011.57 434.97 2008.02C 430.404 2003.45 384.236 2039 237.616 2161.42L 168.618 2218.82L 168.618 2240.67L 168.111 2263.02L 247.256 2311.27C 290.379 2338.2 328.429 2360.04 331.981 2360.04C 335.025 2360.55 339.591 2358.52 341.113 2355.47ZM 1398.4 2314.83C 1408.55 2312.29 1445.08 2303.15 1480.08 2295.02C 1666.28 2251.33 1662.73 2252.35 1665.77 2240.16C 1667.8 2233.56 1675.92 2222.89 1685.05 2215.78C 1702.3 2202.57 1702.3 2200.54 1721.58 2080.15L 1730.2 2025.8L 1718.53 2016.15C 1710.42 2009.54 1706.86 2001.41 1707.37 1990.24C 1707.88 1973.48 1707.37 1973.48 1624.17 1933.35C 1578.51 1911.5 1537.41 1893.22 1533.86 1893.22C 1530.31 1893.22 1524.22 1896.26 1520.67 1900.33C 1517.63 1904.39 1510.52 1908.46 1504.44 1909.47C 1496.32 1910.49 1485.66 1934.87 1446.6 2043.07C 1347.67 2314.83 1353.76 2296.04 1362.89 2308.23C 1372.53 2321.43 1374.05 2321.43 1398.4 2314.83ZM 1316.21 2257.94C 1263.96 2023.26 1236.56 1901.34 1235.04 1900.33C 1234.53 1899.82 1228.45 1897.79 1221.34 1895.76C 1210.18 1893.22 1192.93 1905.92 1097.04 1985.67C 1035.66 2036.97 975.284 2086.24 963.615 2095.39C 947.888 2108.09 942.307 2116.21 942.307 2126.37C 942.307 2142.12 934.19 2137.04 1061.53 2198.51C 1303.53 2314.83 1304.04 2315.34 1314.69 2304.67C 1324.33 2295.02 1324.33 2293.5 1316.21 2257.94ZM 1362.89 2241.17C 1373.54 2213.24 1393.33 2158.38 1407.54 2119.26C 1421.74 2080.15 1444.06 2019.7 1456.75 1984.65C 1479.58 1922.68 1484.65 1898.3 1476.03 1898.3C 1473.49 1898.3 1468.92 1893.22 1466.39 1886.61C 1460.81 1874.93 1457.25 1874.42 1367.96 1868.33C 1280.7 1862.23 1274.11 1862.74 1269.54 1870.87C 1267 1875.44 1260.41 1884.07 1255.33 1889.15C 1246.71 1898.3 1247.72 1903.88 1277.66 2036.97C 1294.4 2113.17 1314.19 2202.06 1321.8 2235.08C 1328.9 2268.1 1337.02 2294 1339.55 2292.99C 1342.09 2292.48 1352.74 2268.6 1362.89 2241.17ZM 235.587 2149.23C 276.681 2115.2 336.547 2066.43 368.002 2041.04C 413.155 2003.95 424.823 1992.27 422.287 1984.65C 420.765 1979.06 421.779 1970.43 424.316 1964.84C 428.882 1956.71 423.809 1947.57 393.369 1907.44C 373.582 1881.53 339.591 1837.34 318.283 1809.4C 296.975 1781.46 265.012 1739.81 247.763 1716.44C 230.006 1693.59 212.757 1675.3 209.713 1676.32C 204.132 1677.84 199.059 1719.49 171.155 1987.19C 165.067 2046.12 156.95 2119.26 153.398 2149.74C 147.31 2205.11 147.817 2215.27 156.442 2212.22C 158.472 2211.2 194.492 2182.76 235.587 2149.23ZM 887.007 2105.55L 901.72 2094.37L 899.183 1987.7C 895.125 1828.71 893.603 1818.55 877.368 1810.93C 869.758 1807.37 861.133 1798.74 857.582 1791.62L 851.494 1778.92L 748.504 1782.99L 645.515 1787.05L 633.846 1802.29C 626.744 1810.93 617.104 1817.02 610.001 1817.02C 592.245 1817.02 487.733 1949.6 490.27 1968.9C 492.299 1985.16 491.792 1985.16 543.033 2002.43C 565.863 2010.05 616.597 2027.83 655.662 2042.05C 734.299 2069.99 867.729 2116.72 870.265 2116.72C 871.28 2116.72 878.383 2111.64 887.007 2105.55ZM 1023.48 2032.4C 1072.19 1991.25 1128.5 1945.03 1147.78 1929.28C 1199.53 1887.63 1201.05 1886.61 1201.05 1877.98C 1201.05 1861.72 1189.89 1856.64 1106.68 1836.83C 1059.5 1825.66 1002.68 1812.45 980.357 1806.86C 929.624 1794.16 927.594 1794.16 913.389 1807.37C 902.227 1818.04 902.227 1821.09 904.257 1880.01C 905.779 1914.04 907.808 1975.51 909.33 2017.67C 911.36 2082.18 912.882 2094.88 920.492 2099.96C 925.058 2103.52 930.131 2106.56 931.653 2106.56C 933.175 2106.56 974.777 2073.04 1023.48 2032.4ZM 1728.68 1943.51C 1728.68 1935.89 1699.76 1761.65 1687.59 1696.63C 1683.02 1669.2 1680.48 1664.63 1670.84 1664.63C 1659.17 1664.63 1660.7 1663.11 1579.02 1770.29C 1530.31 1834.29 1524.22 1844.45 1529.8 1853.09C 1533.35 1858.17 1535.89 1866.29 1535.89 1870.36C 1535.89 1875.95 1565.32 1892.71 1623.15 1921.16C 1695.7 1956.21 1711.43 1962.3 1719.55 1957.73C 1724.62 1954.17 1728.68 1948.08 1728.68 1943.51ZM 533.394 1878.99C 560.282 1844.96 582.098 1814.48 582.098 1811.94C 582.098 1808.89 580.069 1802.8 577.532 1797.72C 574.995 1793.15 571.444 1785.53 570.429 1780.96C 568.907 1776.38 551.15 1767.75 528.32 1759.62C 466.425 1739.3 378.148 1708.32 305.599 1682.41C 269.578 1669.71 235.587 1659.55 230.513 1660.57C 220.367 1662.09 215.293 1654.47 372.568 1862.74C 431.926 1940.97 432.433 1941.47 455.264 1944.01C 467.947 1945.54 479.616 1945.54 481.645 1944.01C 483.167 1942.49 506.505 1913.54 533.394 1878.99ZM 1469.94 1855.12C 1469.94 1845.98 1485.66 1837.34 1502.41 1837.34C 1510.52 1837.34 1518.64 1831.75 1526.76 1821.09C 1532.85 1811.94 1559.23 1777.91 1584.6 1745.4C 1653.59 1657.01 1653.09 1657.52 1645.98 1647.36C 1640.4 1639.23 1632.29 1639.23 1528.28 1646.85C 1277.66 1664.12 1289.83 1662.6 1282.22 1677.33C 1278.67 1683.93 1269.54 1691.55 1261.93 1694.09C 1248.23 1699.17 1248.23 1699.68 1245.19 1761.15L 1241.64 1823.12L 1256.86 1837.85C 1271.06 1852.58 1274.11 1853.09 1336.51 1857.15C 1446.09 1864.26 1469.94 1863.76 1469.94 1855.12ZM 1214.75 1833.28L 1231.49 1819.56L 1234.53 1756.07C 1237.58 1697.14 1237.07 1692.06 1227.94 1683.43C 1218.3 1674.79 1214.75 1675.81 1134.59 1704.76C 1088.93 1721.02 1022.97 1744.38 988.982 1756.57C 951.439 1769.27 929.116 1779.43 933.175 1781.46C 936.726 1783.5 974.269 1793.66 1015.87 1803.81C 1057.98 1813.97 1114.8 1827.69 1142.71 1834.29C 1170.61 1841.4 1194.45 1846.99 1195.98 1846.99C 1197.5 1846.99 1206.12 1840.9 1214.75 1833.28ZM 824.098 1768.26C 845.913 1766.23 857.582 1762.67 864.177 1755.56C 868.743 1750.48 877.368 1745.91 882.441 1745.91C 891.573 1745.91 892.081 1740.83 889.037 1617.9C 885.993 1485.32 882.949 1425.89 879.905 1422.84C 878.89 1421.32 870.265 1431.98 860.626 1445.7C 841.347 1473.13 691.175 1679.36 663.779 1715.43C 641.964 1744.38 635.876 1758.1 639.934 1768.77C 642.471 1775.88 652.11 1776.38 717.557 1773.84C 759.159 1772.32 806.848 1769.78 824.098 1768.26ZM 561.804 1593.01C 467.947 1198.83 472.513 1216.1 463.381 1219.14C 460.337 1220.16 442.073 1247.08 422.287 1279.59C 403.008 1311.59 377.134 1353.25 364.958 1371.53C 352.782 1390.33 314.731 1451.29 280.232 1507.67L 217.323 1610.28L 226.962 1628.57C 235.587 1646.35 238.631 1647.87 356.84 1689.01C 423.809 1712.38 499.402 1738.8 525.784 1747.94L 572.966 1764.7L 585.142 1753.53L 597.318 1741.84L 561.804 1593.01ZM 1059.5 1720.51C 1200.03 1670.22 1221.34 1661.58 1221.34 1656C 1220.84 1645.33 1206.63 1633.65 991.519 1471.1C 890.051 1393.89 891.066 1393.89 894.11 1483.29C 895.632 1517.32 897.661 1589.45 899.183 1643.81C 901.72 1736.76 902.227 1742.35 912.882 1754.03C 919.477 1760.64 926.072 1766.23 927.594 1766.23C 929.116 1766.23 988.475 1745.4 1059.5 1720.51ZM 696.249 1653.96C 735.314 1600.63 779.452 1540.69 793.657 1520.88C 865.699 1422.33 868.236 1417.76 853.016 1405.06C 847.942 1401 845.913 1393.38 847.435 1383.73C 849.464 1370.01 847.435 1368.49 808.37 1349.69C 757.129 1325.82 610.509 1254.7 547.599 1224.22C 503.968 1202.89 499.402 1201.87 492.299 1208.99C 482.66 1218.64 482.153 1217.11 526.291 1397.95C 542.526 1465 566.37 1565.07 579.561 1620.44C 592.245 1675.3 603.913 1724.57 605.943 1729.65C 610.001 1740.32 617.612 1750.99 622.177 1750.99C 624.207 1750.99 657.691 1707.3 696.249 1653.96ZM 1457.25 1641.77C 1645.98 1630.09 1643.45 1630.6 1641.42 1616.38C 1640.4 1609.26 1603.37 1566.59 1548.07 1508.69C 1497.84 1456.37 1444.57 1400.49 1429.86 1384.74C 1403.48 1356.3 1402.97 1355.79 1384.7 1361.38C 1374.56 1364.42 1365.43 1366.96 1364.92 1367.47C 1363.4 1367.98 1327.38 1468.56 1314.69 1507.16C 1310.13 1519.86 1298.96 1552.37 1288.82 1579.29C 1271.57 1628.06 1271.06 1628.57 1280.7 1641.77C 1288.82 1653.46 1292.37 1654.47 1312.66 1652.44C 1325.35 1650.92 1390.29 1646.35 1457.25 1641.77ZM 1249.75 1627.04C 1257.87 1624.5 1265.48 1611.3 1279.18 1575.74C 1289.33 1549.32 1297.44 1525.96 1297.44 1523.92C 1297.44 1521.89 1302.01 1508.69 1307.08 1494.46C 1312.66 1480.75 1325.35 1445.7 1335.49 1417.25C 1354.26 1366.46 1354.26 1364.42 1346.15 1347.66C 1340.06 1334.96 1339.04 1326.83 1342.6 1317.69C 1347.16 1305.5 1342.6 1300.42 1256.86 1228.8C 1177.71 1163.27 1164.01 1153.62 1150.82 1155.65C 1142.71 1156.66 1131.54 1155.14 1125.96 1152.09C 1117.34 1147.52 1105.16 1157.68 1018.91 1245.05C 910.345 1354.26 905.779 1359.85 912.374 1370.52C 914.911 1374.58 916.94 1382.2 916.94 1387.79C 916.94 1395.41 934.19 1411.66 973.255 1441.13C 1004.2 1465 1073.2 1517.83 1126.47 1558.97C 1180.76 1601.14 1227.43 1633.14 1231.49 1632.12C 1235.55 1630.6 1244.17 1628.57 1249.75 1627.04ZM 250.3 1536.62C 272.115 1499.54 309.658 1438.08 334.01 1400.49C 357.855 1362.9 378.656 1328.36 380.685 1324.29C 382.714 1320.23 387.28 1312.1 390.325 1307.02C 446.132 1221.18 452.22 1207.46 439.536 1199.84C 436.492 1197.81 434.97 1187.65 435.478 1176.98L 437 1157.17L 356.333 1092.15C 194.492 962.113 186.882 957.034 177.75 964.145C 168.618 971.765 169.126 988.528 186.375 1296.36C 191.448 1391.35 197.536 1499.54 199.566 1536.62C 201.088 1573.2 204.639 1603.68 206.161 1603.68C 208.191 1603.68 227.977 1573.2 250.3 1536.62ZM 1676.42 1591.48C 1676.93 1590.98 1680.99 1567.61 1685.56 1539.67C 1690.12 1512.24 1695.7 1475.67 1698.24 1458.91C 1701.28 1442.14 1705.34 1412.68 1708.39 1392.87C 1710.92 1373.57 1722.08 1294.32 1733.25 1217.62C 1744.41 1140.92 1757.09 1046.94 1762.16 1008.85L 1770.79 939.255L 1760.13 925.54C 1754.05 917.92 1748.97 907.253 1748.97 902.173C 1748.97 897.093 1744.91 892.014 1740.35 890.49C 1699.25 878.299 1581.55 845.281 1549.08 836.645C 1513.06 826.994 1508.5 826.994 1500.38 834.105C 1495.81 838.169 1489.22 841.725 1486.17 841.725C 1475.01 841.725 1476.03 838.677 1447.11 996.655C 1443.05 1019.01 1430.37 1087.58 1419.2 1149.05C 1408.04 1210.51 1397.39 1267.91 1395.36 1277.05C 1393.84 1287.72 1395.36 1296.86 1400.94 1304.48C 1405.51 1311.09 1409.06 1323.28 1409.06 1331.91C 1409.06 1344.1 1417.68 1355.79 1451.17 1390.33C 1474 1414.71 1527.77 1471.1 1570.9 1516.81C 1641.42 1590.98 1650.55 1599.1 1662.22 1596.06C 1669.32 1594.02 1675.92 1591.99 1676.42 1591.48ZM 864.177 1352.74C 865.699 1349.18 860.119 1330.39 851.494 1311.09C 843.376 1291.78 825.62 1248.61 812.429 1215.08C 767.276 1100.79 762.71 1092.15 743.431 1089.61C 734.299 1088.09 723.138 1085.55 719.079 1084.03C 708.932 1079.45 503.461 1172.92 503.461 1182.06C 503.461 1190.19 580.576 1229.81 805.326 1336.49C 859.104 1362.39 860.626 1362.9 864.177 1352.74ZM 982.894 1268.42C 1108.71 1137.87 1109.22 1137.87 1106.18 1126.19C 1103.13 1115.01 1100.09 1114 1043.77 1105.87C 1022.97 1102.82 960.571 1093.68 905.272 1085.55C 790.613 1068.28 776.915 1067.26 773.364 1077.93C 770.32 1084.53 789.599 1136.85 830.186 1232.86C 839.318 1253.69 853.523 1288.74 862.148 1310.07C 870.773 1331.91 881.427 1350.2 885.993 1351.22C 890.559 1352.74 895.125 1353.76 896.647 1354.26C 898.169 1354.26 937.234 1315.66 982.894 1268.42ZM 1379.12 1289.24C 1381.15 1287.72 1386.23 1265.88 1391.3 1240.48C 1395.87 1215.59 1402.97 1180.03 1406.52 1161.74C 1409.56 1143.46 1420.22 1088.6 1428.84 1039.83C 1437.98 991.067 1449.64 929.095 1454.72 902.681C 1461.31 866.107 1462.33 852.9 1457.76 848.329C 1451.17 841.217 1458.78 834.613 1291.86 992.083L 1176.7 1100.28L 1177.71 1123.14C 1178.22 1148.03 1167.56 1137.36 1307.08 1256.73C 1353.76 1296.36 1366.44 1302.45 1379.12 1289.24ZM 559.775 1138.38C 587.679 1125.68 617.104 1111.96 625.729 1108.41C 709.947 1070.31 707.41 1072.34 710.961 1054.56C 712.484 1044.91 719.079 1033.74 724.66 1029.16C 734.806 1021.55 734.806 1021.04 707.41 952.97C 681.029 887.442 633.846 774.165 620.148 742.671C 616.597 734.544 609.494 717.781 604.928 706.098C 598.333 688.827 593.767 684.255 584.635 684.255C 578.039 684.255 570.936 682.223 569.414 679.175C 567.892 676.636 562.819 674.096 558.253 674.096C 553.687 674.096 468.962 728.448 370.538 794.484C 198.044 910.301 191.448 915.38 191.448 930.619C 191.448 947.89 185.868 942.81 330.459 1057.61C 358.87 1079.96 396.413 1109.93 414.169 1124.15C 442.58 1147.52 448.161 1150.06 464.903 1148.03C 478.094 1146 485.704 1148.03 490.27 1153.62C 499.909 1165.3 503.968 1164.28 559.775 1138.38ZM 1109.73 1100.28C 1109.73 1093.17 993.041 937.731 985.938 935.699C 982.894 934.683 970.718 932.651 959.049 931.635C 938.756 929.095 934.697 931.635 860.119 984.464C 812.936 1017.99 782.496 1043.39 782.496 1048.47C 782.496 1055.58 801.267 1059.64 906.794 1075.9C 975.284 1086.06 1044.79 1096.72 1061.53 1099.77C 1103.64 1106.38 1109.73 1106.88 1109.73 1100.28ZM 1230.47 1033.23C 1424.28 850.36 1440 835.121 1434.93 830.042C 1431.89 826.994 1397.9 830.55 1337.02 841.217C 1285.77 849.852 1193.95 865.091 1132.56 875.251C 1071.17 884.902 1015.87 894.046 1010.29 895.57C 1003.69 896.585 998.622 902.173 997.099 909.285C 995.07 918.936 1008.77 940.271 1056.97 1004.78L 1119.37 1088.09L 1145.24 1088.6L 1171.12 1089.1L 1230.47 1033.23ZM 833.23 990.559C 863.163 968.717 892.588 947.89 898.169 943.826C 925.565 925.54 930.131 918.936 928.102 899.125C 926.072 877.283 940.785 888.458 735.314 753.339C 614.567 673.588 607.465 669.524 607.465 679.175C 607.465 684.255 694.727 899.633 735.314 994.623C 744.446 1015.96 757.636 1028.66 772.857 1029.16C 775.901 1029.67 803.297 1011.89 833.23 990.559ZM 292.916 835.121C 347.201 799.056 399.964 763.498 409.603 756.894C 419.243 749.783 449.176 729.464 475.557 711.685C 543.033 666.476 550.136 659.873 553.687 635.49C 556.731 615.172 555.716 614.156 485.197 526.277C 445.624 477.513 404.023 425.7 392.354 411.477C 376.119 390.65 369.524 385.57 361.406 387.602C 355.826 389.634 349.738 392.174 347.708 394.206C 346.186 395.73 331.981 434.843 316.761 481.068C 301.541 527.293 263.49 639.554 232.035 731.496C 201.088 822.93 177.243 900.141 178.765 902.681C 182.824 908.777 172.677 914.872 292.916 835.121ZM 1119.88 867.123C 1193.44 855.44 1343.1 830.55 1412.61 818.866C 1430.87 815.819 1452.18 785.849 1448.12 768.578C 1445.59 756.894 1365.93 561.835 1357.82 546.088C 1354.77 540.5 1347.16 536.945 1338.03 536.945C 1322.81 536.945 1307.59 521.706 1307.59 505.959C 1307.59 500.371 1299.98 495.799 1283.74 491.228C 1270.05 487.672 1252.8 483.1 1244.17 480.56C 1224.89 474.973 1153.87 454.654 1107.19 441.447C 1087.91 435.859 1050.88 426.208 1025 420.112L 978.328 408.937L 965.645 423.16C 957.527 432.811 953.976 442.463 954.991 450.59C 957.02 462.781 963.615 592.821 972.24 779.245C 975.284 855.948 976.299 862.552 987.46 874.235C 996.592 883.886 1002.68 885.918 1015.36 884.394C 1023.99 882.87 1071.17 875.251 1119.88 867.123ZM 1765.71 873.219C 1773.83 864.583 1772.31 858.488 1746.44 777.721C 1692.66 611.108 1696.72 620.759 1678.45 619.235C 1663.74 617.711 1658.67 621.267 1632.79 649.713C 1616.56 667.492 1590.18 697.97 1573.43 717.273C 1557.2 737.084 1535.38 761.974 1524.73 773.149C 1502.91 796.516 1500.38 809.723 1517.12 815.819C 1523.21 818.359 1568.36 831.058 1617.07 844.265C 1665.77 857.472 1714.98 871.187 1726.14 874.743C 1753.54 883.886 1756.08 883.886 1765.71 873.219ZM 956.005 867.123C 963.108 867.123 963.615 855.948 960.571 767.054C 956.513 645.65 948.395 486.148 944.336 457.194C 942.307 440.431 939.263 435.859 929.624 433.319C 922.521 431.287 913.896 423.668 909.838 415.54L 902.227 401.317L 792.643 397.762L 683.058 394.206L 670.882 406.905C 664.286 414.017 654.14 420.112 649.066 420.112C 638.412 420.112 637.398 423.668 618.119 506.467C 596.303 600.441 595.289 612.632 604.928 623.299C 609.494 628.379 615.075 640.062 617.104 649.205C 619.641 662.921 633.846 673.588 734.299 740.64C 797.209 782.293 852.001 817.851 856.06 819.882C 860.119 821.914 879.397 834.613 899.183 847.821C 918.462 861.536 937.741 871.187 941.292 869.663C 945.351 868.139 951.947 867.123 956.005 867.123ZM 1529.3 751.815C 1546.04 732.512 1576.48 697.97 1596.77 674.096C 1617.07 650.221 1638.37 625.839 1643.95 619.743C 1658.67 603.488 1651.56 589.773 1623.15 580.63C 1582.06 567.423 1387.24 516.626 1378.62 516.626C 1363.4 516.626 1370.5 544.564 1411.59 647.682C 1460.81 771.118 1464.86 779.245 1481.1 782.293C 1487.69 783.309 1494.29 784.833 1495.81 785.341C 1497.84 785.341 1512.55 770.61 1529.3 751.815ZM 584.127 608.568C 587.679 602.98 615.075 475.989 619.641 444.495C 622.685 426.208 621.163 417.064 614.567 406.397C 609.494 398.778 604.928 391.666 604.928 391.158C 604.421 390.142 571.444 385.062 530.857 379.475C 490.777 373.887 445.624 366.776 430.404 364.236C 407.067 360.172 401.486 360.68 393.369 367.792C 388.295 372.363 384.236 377.951 384.236 380.491C 384.236 384.047 431.419 444.495 484.182 509.006C 491.285 517.642 513.1 544.056 532.886 568.439C 567.385 610.6 578.039 618.727 584.127 608.568ZM 1317.74 478.528C 1322.3 472.941 1316.72 450.082 1286.79 363.22C 1266.5 303.788 1248.23 252.483 1245.69 249.435C 1243.67 246.387 1233.01 242.324 1222.86 240.8C 1202.57 237.244 1208.66 233.688 1053.41 335.282C 1011.3 362.712 977.821 387.602 978.835 390.65C 981.372 397.762 996.592 402.841 1109.73 432.303C 1158.43 445.511 1221.34 462.781 1249.25 470.401C 1309.62 488.18 1309.62 488.18 1317.74 478.528ZM 911.867 381.507C 925.058 366.268 937.741 362.712 957.02 369.315C 975.284 374.903 976.806 374.395 1015.87 347.981C 1038.19 333.25 1087.91 300.74 1126.47 275.85C 1191.92 233.688 1195.98 230.132 1195.98 214.893L 1195.98 198.639L 1129.01 177.812C 1052.4 153.937 831.708 85.8698 760.68 64.5351L 713.498 50.3121L 696.756 60.9794C 677.477 73.6786 676.463 77.2343 658.706 255.023L 649.066 346.457L 660.735 356.616C 666.823 362.204 673.419 370.839 674.941 375.411C 678.492 384.555 695.234 386.078 841.347 388.618C 894.11 389.634 906.794 388.11 911.867 381.507ZM 619.133 362.204C 641.456 342.393 639.427 352.045 655.154 194.067L 667.331 77.2343L 649.574 59.9634L 631.817 42.6926L 509.041 46.2483C 200.073 54.3758 196.014 54.8838 190.434 67.5829C 184.346 80.7901 179.78 73.1706 278.71 222.005C 336.547 309.375 342.128 315.979 357.855 317.503C 372.06 319.027 381.7 327.154 391.847 347.473C 392.354 348.489 418.735 352.553 450.698 357.124C 507.012 365.252 592.245 377.443 597.318 378.459C 598.84 378.967 608.479 371.347 619.133 362.204Z"/>
        
        <path id="retreive-line" 
            d="M 0 0L 206.312 0L 206.312 12L 0 12L 0 0Z"/>
       
        <path id="attestations-document-fill" class="document-icon"
            d="M 0 0L 240 0L 240 78.4309C 240 78.4309 180.157 65.9006 120 78.4309C 59.8433 90.9613 0 78.4309 0 78.4309L 0 0Z"/>
        
        <path id="claim-arrow" 
            d="M 111.469 1.41421C 112.25 0.633165 112.25 -0.633165 111.469 -1.41421L 98.7408 -14.1421C 97.9598 -14.9232 96.6935 -14.9232 95.9124 -14.1421C 95.1313 -13.3611 95.1313 -12.0948 95.9124 -11.3137L 107.226 0L 95.9124 11.3137C 95.1313 12.0948 95.1313 13.3611 95.9124 14.1421C 96.6935 14.9232 97.9598 14.9232 98.7408 14.1421L 111.469 1.41421ZM 0 2L 110.055 2L 110.055 -2L 0 -2L 0 2Z"/>
       
        <path id="dotted-arrow" 
            d="M 244.387 0.707107C 244.778 0.316583 244.778 -0.316583 244.387 -0.707107L 238.023 -7.07107C 237.633 -7.46159 237 -7.46159 236.609 -7.07107C 236.219 -6.68054 236.219 -6.04738 236.609 -5.65685L 242.266 0L 236.609 5.65685C 236.219 6.04738 236.219 6.68054 236.609 7.07107C 237 7.46159 237.633 7.46159 238.023 7.07107L 244.387 0.707107ZM 0 1L 6.092 1L 6.092 -1L 0 -1L 0 1ZM 18.276 1L 30.46 1L 30.46 -1L 18.276 -1L 18.276 1ZM 42.644 1L 54.828 1L 54.828 -1L 42.644 -1L 42.644 1ZM 67.012 1L 79.196 1L 79.196 -1L 67.012 -1L 67.012 1ZM 91.38 1L 103.564 1L 103.564 -1L 91.38 -1L 91.38 1ZM 115.748 1L 127.932 1L 127.932 -1L 115.748 -1L 115.748 1ZM 140.116 1L 152.3 1L 152.3 -1L 140.116 -1L 140.116 1ZM 164.484 1L 176.668 1L 176.668 -1L 164.484 -1L 164.484 1ZM 188.852 1L 201.036 1L 201.036 -1L 188.852 -1L 188.852 1ZM 213.22 1L 225.404 1L 225.404 -1L 213.22 -1L 213.22 1ZM 237.588 1L 243.68 1L 243.68 -1L 237.588 -1L 237.588 1ZM 245.094 1.41421C 245.875 0.633165 245.875 -0.633165 245.094 -1.41421L 232.366 -14.1421C 231.585 -14.9232 230.319 -14.9232 229.538 -14.1421C 228.757 -13.3611 228.757 -12.0948 229.538 -11.3137L 240.852 0L 229.538 11.3137C 228.757 12.0948 228.757 13.3611 229.538 14.1421C 230.319 14.9232 231.585 14.9232 232.366 14.1421L 245.094 1.41421ZM 0 2L 6.092 2L 6.092 -2L 0 -2L 0 2ZM 18.276 2L 30.46 2L 30.46 -2L 18.276 -2L 18.276 2ZM 42.644 2L 54.828 2L 54.828 -2L 42.644 -2L 42.644 2ZM 67.012 2L 79.196 2L 79.196 -2L 67.012 -2L 67.012 2ZM 91.38 2L 103.564 2L 103.564 -2L 91.38 -2L 91.38 2ZM 115.748 2L 127.932 2L 127.932 -2L 115.748 -2L 115.748 2ZM 140.116 2L 152.3 2L 152.3 -2L 140.116 -2L 140.116 2ZM 164.484 2L 176.668 2L 176.668 -2L 164.484 -2L 164.484 2ZM 188.852 2L 201.036 2L 201.036 -2L 188.852 -2L 188.852 2ZM 213.22 2L 225.404 2L 225.404 -2L 213.22 -2L 213.22 2ZM 237.588 2L 243.68 2L 243.68 -2L 237.588 -2L 237.588 2Z"/>
        
        <path id="attest-arrow" 
            d="M 521.453 1.41421C 522.234 0.633165 522.234 -0.633165 521.453 -1.41421L 508.725 -14.1421C 507.944 -14.9232 506.677 -14.9232 505.896 -14.1421C 505.115 -13.3611 505.115 -12.0948 505.896 -11.3137L 517.21 0L 505.896 11.3137C 505.115 12.0948 505.115 13.3611 505.896 14.1421C 506.677 14.9232 507.944 14.9232 508.725 14.1421L 521.453 1.41421ZM 0 2L 520.038 2L 520.038 -2L 0 -2L 0 2Z"/>
        
        <path id="verify-arrow" 
            d="M 321.18 1.41421C 321.961 0.633165 321.961 -0.633165 321.18 -1.41421L 308.452 -14.1421C 307.671 -14.9232 306.404 -14.9232 305.623 -14.1421C 304.842 -13.3611 304.842 -12.0948 305.623 -11.3137L 316.937 0L 305.623 11.3137C 304.842 12.0948 304.842 13.3611 305.623 14.1421C 306.404 14.9232 307.671 14.9232 308.452 14.1421L 321.18 1.41421ZM 0 2L 319.766 2L 319.766 -2L 0 -2L 0 2Z"/>

        <path id="citizen-background-fill"  class="entity-background"
            d="M 124.489 137.616C 142.457 123.52 154 101.608 154 77C 154 34.4741 119.526 0 77 0C 34.4741 0 0 34.4741 0 77C 0 101.833 11.7557 123.921 30.0057 138.001C 24.5226 142.303 21 148.99 21 156.5C 21 169.479 31.5213 180 44.5 180L 110.5 180C 123.479 180 134 169.479 134 156.5C 134 148.762 130.26 141.898 124.489 137.616Z"/>
        <path id="citizen-icon" 
            d="M 40 40C 51.05 40 60 31.05 60 20C 60 8.95 51.05 0 40 0C 28.95 0 20 8.95 20 20C 20 31.05 28.95 40 40 40ZM 40 50C 26.65 50 0 56.7 0 70L 0 80L 80 80L 80 70C 80 56.7 53.35 50 40 50Z"/>
        
        <path id="public-administration-background-fill" class="entity-background"
            d="M 149.5 103C 138.836 132.732 110.402 154 77 154C 34.4741 154 0 119.526 0 77C 0 34.4741 34.4741 0 77 0C 112.246 0 141.961 23.6809 151.102 56L 360.5 56C 373.479 56 384 66.5213 384 79.5C 384 92.4787 373.479 103 360.5 103L 149.5 103Z"/>
        <path id="public-administration-icon" 
            d="M 10 45L 10 80L 25 80L 25 45L 10 45ZM 40 45L 40 80L 55 80L 55 45L 40 45ZM 0 105L 95 105L 95 90L 0 90L 0 105ZM 70 45L 70 80L 85 80L 85 45L 70 45ZM 47.5 0L 0 25L 0 35L 95 35L 95 25L 47.5 0Z"/>
        
        <path id="housing-cooperative-background-fill" class="entity-background" 
            d="M 178.849 133C 193.719 118.961 203 99.0644 203 77C 203 34.4741 168.526 0 126 0C 83.4741 0 49 34.4741 49 77C 49 99.0644 58.2805 118.961 73.1509 133L 23.5 133C 10.5214 133 0 143.521 0 156.5C 0 169.479 10.5214 180 23.5 180L 228.5 180C 241.479 180 252 169.479 252 156.5C 252 143.521 241.479 133 228.5 133L 178.849 133Z"/>
        <path id="housing-cooperative-icon" 
            d="M 50 20L 50 0L 0 0L 0 90L 100 90L 100 20L 50 20ZM 20 80L 10 80L 10 70L 20 70L 20 80ZM 20 60L 10 60L 10 50L 20 50L 20 60ZM 20 40L 10 40L 10 30L 20 30L 20 40ZM 20 20L 10 20L 10 10L 20 10L 20 20ZM 40 80L 30 80L 30 70L 40 70L 40 80ZM 40 60L 30 60L 30 50L 40 50L 40 60ZM 40 40L 30 40L 30 30L 40 30L 40 40ZM 40 20L 30 20L 30 10L 40 10L 40 20ZM 90 80L 50 80L 50 70L 60 70L 60 60L 50 60L 50 50L 60 50L 60 40L 50 40L 50 30L 90 30L 90 80ZM 80 40L 70 40L 70 50L 80 50L 80 40ZM 80 60L 70 60L 70 70L 80 70L 80 60Z"/>

    </defs>
</svg>
